HIERARCHY
ROOT SimulationBone
{
	OFFSET 0.000000 0.000000 0.000000
	CHANNELS 6 Xposition Yposition Zposition Zrotation Yrotation Xrotation 
	JOINT Hips
	{
		OFFSET 0.000000 0.000000 0.000000
		CHANNELS 6 Xposition Yposition Zposition Zrotation Yrotation Xrotation 
		JOINT LeftUpLeg
		{
			OFFSET 0.103461 1.857818 10.548512
			CHANNELS 3 Zrotation Yrotation Xrotation
			JOINT LeftLeg
			{
				OFFSET 43.500000 -0.000019 0.000004
				CHANNELS 3 Zrotation Yrotation Xrotation
				JOINT LeftFoot
				{
					OFFSET 42.372200 0.000011 0.000000
					CHANNELS 3 Zrotation Yrotation Xrotation
					JOINT LeftToe
					{
						OFFSET 17.300009 0.000002 0.000004
						CHANNELS 3 Zrotation Yrotation Xrotation
						End Site
						{
							OFFSET 0.000000 0.000000 0.000000
						}
					}
				}
			}
		}
		JOINT RightUpLeg
		{
			OFFSET 0.103461 1.857838 -10.548504
			CHANNELS 3 Zrotation Yrotation Xrotation
			JOINT RightLeg
			{
				OFFSET 43.500042 -0.000038 0.000017
				CHANNELS 3 Zrotation Yrotation Xrotation
				JOINT RightFoot
				{
					OFFSET 42.372253 -0.000008 0.000015
					CHANNELS 3 Zrotation Yrotation Xrotation
					JOINT RightToe
					{
						OFFSET 17.299995 -0.000004 0.000004
						CHANNELS 3 Zrotation Yrotation Xrotation
						End Site
						{
							OFFSET 0.000000 0.000000 0.000000
						}
					}
				}
			}
		}
		JOINT Spine
		{
			OFFSET 6.901970 -2.603733 -0.000002
			CHANNELS 3 Zrotation Yrotation Xrotation
			JOINT Spine1
			{
				OFFSET 12.588097 0.000016 0.000005
				CHANNELS 3 Zrotation Yrotation Xrotation
				JOINT Spine2
				{
					OFFSET 12.343206 -0.000008 -0.000008
					CHANNELS 3 Zrotation Yrotation Xrotation
					JOINT Neck
					{
						OFFSET 25.832890 -0.000023 0.000008
						CHANNELS 3 Zrotation Yrotation Xrotation
						JOINT Head
						{
							OFFSET 11.766625 0.000019 -0.000006
							CHANNELS 3 Zrotation Yrotation Xrotation
							End Site
							{
								OFFSET 0.000000 0.000000 0.000000
							}
						}
					}
					JOINT LeftShoulder
					{
						OFFSET 19.745903 -1.480385 6.000111
						CHANNELS 3 Zrotation Yrotation Xrotation
						JOINT LeftArm
						{
							OFFSET 11.284122 -0.000021 -0.000025
							CHANNELS 3 Zrotation Yrotation Xrotation
							JOINT LeftForeArm
							{
								OFFSET 33.000057 -0.000001 0.000032
								CHANNELS 3 Zrotation Yrotation Xrotation
								JOINT LeftHand
								{
									OFFSET 25.200003 0.000023 0.000006
									CHANNELS 3 Zrotation Yrotation Xrotation
									End Site
									{
										OFFSET 0.000000 0.000000 0.000000
									}
								}
							}
						}
					}
					JOINT RightShoulder
					{
						OFFSET 19.746098 -1.480366 -6.000072
						CHANNELS 3 Zrotation Yrotation Xrotation
						JOINT RightArm
						{
							OFFSET 11.284136 -0.000004 -0.000006
							CHANNELS 3 Zrotation Yrotation Xrotation
							JOINT RightForeArm
							{
								OFFSET 33.000092 0.000029 0.000002
								CHANNELS 3 Zrotation Yrotation Xrotation
								JOINT RightHand
								{
									OFFSET 25.199776 0.000140 0.000420
									CHANNELS 3 Zrotation Yrotation Xrotation
									End Site
									{
										OFFSET 0.000000 0.000000 0.000000
									}
								}
							}
						}
					}
				}
			}
		}
	}
}
MOTION
Frames: 10
Frame Time: 0.016667
191.615142 0.000000 -289.811054 0.000000 200.652394 0.000000 0.974780 91.735641 -1.271778 96.914840 -0.167643 179.963317 170.900548 -4.559122 -175.966248 -13.190120 -2.206697 1.352053 71.357722 -1.810930 -2.817067 21.454551 0.003095 0.000001 -172.927149 0.249550 175.828623 -17.513734 2.628627 -2.566664 86.742895 1.092294 -3.129116 21.454559 -0.003111 -0.000018 8.802425 1.351242 -0.662558 7.579379 2.742804 -1.235673 7.260961 2.735429 -1.252332 18.734182 9.586630 -6.333523 -11.873474 0.264228 -6.863779 -172.776542 -80.204228 -8.871620 -19.388001 61.880713 37.931402 -32.583619 -16.116298 1.353854 -3.158204 -15.002879 9.570889 176.926402 69.729100 -1.853975 -11.345909 -48.481905 -35.022371 -26.664779 15.219184 -1.208974 9.402629 5.142932 -12.662499 
191.369747 0.000000 -289.390807 0.000000 200.201212 0.000000 0.946555 91.798752 -1.247495 96.834582 -0.212891 179.981696 171.079860 -4.554901 -176.659578 -13.297512 -2.309805 1.388449 71.481665 -1.852634 -2.881115 21.454553 0.003095 0.000001 -172.842500 0.458695 175.734921 -17.523725 2.518899 -2.741903 86.630068 1.238634 -2.987008 21.454560 -0.003113 -0.000018 8.783657 1.296588 -0.659095 7.542286 2.633203 -1.232737 7.223894 2.625849 -1.248618 18.797138 9.530910 -6.295130 -11.776459 0.276677 -6.831734 -172.595683 -80.223208 -9.055419 -19.726837 61.838202 37.713418 -32.647426 -16.115527 1.355166 -3.042823 -14.495579 9.679721 176.907104 69.722561 -1.874043 -11.203033 -48.930364 -34.852651 -26.841034 15.328616 -1.218960 9.372226 5.105630 -12.749202 
191.126743 0.000000 -288.968981 0.000000 199.749157 0.000000 0.924232 91.858288 -1.224749 96.769296 -0.259631 -179.974007 171.238054 -4.524182 -177.608049 -13.493871 -2.337667 1.648729 71.679945 -1.983853 -2.731973 21.454554 0.003093 0.000001 -172.757228 0.676801 175.677080 -17.566101 2.418004 -2.924696 86.518151 1.389449 -2.849656 21.454558 -0.003111 -0.000017 8.768319 1.239607 -0.658316 7.512012 2.519160 -1.235201 7.193662 2.511795 -1.249849 18.850676 9.477003 -6.251114 -11.701406 0.278831 -6.789757 -172.469435 -80.248342 -9.183807 -20.055798 61.761417 37.501082 -32.755946 -16.128246 1.358308 -2.873076 -13.919884 9.754721 176.910798 69.741659 -1.869738 -11.076425 -49.422126 -34.632113 -27.086977 15.461316 -1.231668 9.335102 5.093222 -12.804959 
190.886737 0.000000 -288.545946 0.000000 199.295874 0.000000 0.909040 91.916733 -1.203353 96.718397 -0.308428 -179.910182 171.403529 -4.458697 -178.694373 -13.716382 -2.291108 2.024952 71.913435 -2.155943 -2.450655 21.454555 0.003091 -0.000000 -172.660161 0.902694 175.627523 -17.615872 2.326738 -3.102197 86.399078 1.536412 -2.713924 21.454557 -0.003108 -0.000017 8.755352 1.180791 -0.658889 7.486482 2.401561 -1.240404 7.168171 2.394167 -1.253980 18.901683 9.420071 -6.200432 -11.646430 0.269506 -6.737022 -172.397525 -80.271129 -9.257008 -20.367809 61.647489 37.308907 -32.911166 -16.159280 1.363629 -2.664651 -13.280429 9.812825 176.910888 69.785324 -1.868571 -10.956242 -49.936759 -34.404055 -27.407987 15.609424 -1.246730 9.287444 5.099592 -12.815627 
190.650321 0.000000 -288.121977 0.000000 198.841348 0.000000 0.901241 91.976727 -1.182425 96.678920 -0.359730 -179.834514 171.604140 -4.358417 -179.796945 -13.894323 -2.187769 2.402041 72.140767 -2.322227 -2.142399 21.454554 0.003092 -0.000000 -172.544330 1.134182 175.562586 -17.650355 2.243245 -3.264203 86.265389 1.673145 -2.576381 21.454557 -0.003110 -0.000017 8.743059 1.120469 -0.659417 7.462335 2.280958 -1.245578 7.144044 2.273533 -1.258787 18.957546 9.354480 -6.142086 -11.606124 0.249048 -6.673198 -172.371038 -80.283856 -9.284021 -20.660628 61.497126 37.145544 -33.107700 -16.211506 1.371231 -2.436835 -12.587331 9.873918 176.877857 69.849712 -1.901125 -10.831998 -50.450417 -34.214394 -27.806756 15.764949 -1.263737 9.225954 5.117111 -12.773547 
190.417997 0.000000 -287.697016 0.000000 198.385904 0.000000 0.898682 92.039330 -1.159772 96.645287 -0.414045 -179.751821 171.843680 -4.227798 179.191570 -14.001223 -2.059795 2.719512 72.354201 -2.453548 -1.852356 21.454555 0.003093 -0.000000 -172.414083 1.369296 175.477655 -17.663330 2.163928 -3.410502 86.116274 1.799811 -2.436251 21.454558 -0.003113 -0.000018 8.729380 1.058425 -0.659250 7.435460 2.156851 -1.249476 7.117191 2.149403 -1.262478 19.022543 9.277818 -6.075615 -11.569415 0.218205 -6.598272 -172.370000 -80.284195 -9.285085 -20.941173 61.318049 37.004810 -33.325817 -16.281530 1.380486 -2.213631 -11.868145 9.952038 176.798600 69.923259 -1.981136 -10.705396 -50.936135 -34.098892 -28.274870 15.921958 -1.282250 9.152383 5.137071 -12.706525 
190.190148 0.000000 -287.270751 0.000000 197.930057 0.000000 0.898812 92.104453 -1.132876 96.612464 -0.470761 -179.665865 172.119427 -4.074548 178.363869 -14.027001 -1.941238 2.934520 72.555638 -2.526735 -1.607094 21.454557 0.003090 0.000000 -172.276603 1.605602 175.375737 -17.655549 2.085422 -3.544323 85.954072 1.918708 -2.294081 21.454557 -0.003113 -0.000018 8.712616 0.994517 -0.657953 7.402457 2.028912 -1.251259 7.084230 2.021458 -1.263602 19.099065 9.188054 -6.000647 -11.524929 0.179008 -6.512533 -172.372514 -80.271331 -9.282411 -21.218433 61.119249 36.875990 -33.542446 -16.363576 1.390507 -2.017470 -11.156713 10.054724 176.668871 69.993315 -2.113224 -10.584028 -51.368893 -34.084641 -28.798851 16.075732 -1.301756 9.068396 5.151276 -12.648343 
189.967065 0.000000 -286.843639 0.000000 197.474491 0.000000 0.900454 92.168983 -1.100764 96.580263 -0.525045 -179.578889 172.424874 -3.912201 177.768295 -13.981132 -1.859224 3.019307 72.751281 -2.525184 -1.419087 21.454558 0.003088 0.000000 -172.139113 1.838592 175.271465 -17.639303 2.007097 -3.672702 85.787045 2.034145 -2.153047 21.454557 -0.003110 -0.000017 8.692865 0.929458 -0.655222 7.363524 1.898551 -1.250262 7.045337 1.891108 -1.261701 19.185105 9.081500 -5.916604 -11.465751 0.138300 -6.417150 -172.360779 -80.245119 -9.294128 -21.500111 60.908005 36.745495 -33.735526 -16.448598 1.400252 -1.860986 -10.494520 10.171614 176.503795 70.050765 -2.282041 -10.488555 -51.734922 -34.173177 -29.356125 16.224337 -1.321795 8.970393 5.154876 -12.621268 
189.748940 0.000000 -286.417070 0.000000 197.020037 0.000000 0.903263 92.229686 -1.063777 96.550236 -0.572615 -179.494037 172.753528 -3.752989 177.427642 -13.878835 -1.832442 2.957914 72.948105 -2.438287 -1.292239 21.454554 0.003091 -0.000000 -172.006760 2.065798 175.178797 -17.626687 1.930260 -3.803515 85.623949 2.150775 -2.017150 21.454557 -0.003107 -0.000017 8.670778 0.863791 -0.650490 7.319967 1.766827 -1.245294 7.001798 1.759415 -1.255905 19.277006 8.956025 -5.822961 -11.386775 0.102240 -6.313011 -172.320470 -80.207029 -9.334850 -21.792111 60.691255 36.600326 -33.887123 -16.527319 1.408686 -1.750579 -9.921476 10.286471 176.323697 70.089463 -2.466820 -10.441315 -52.028100 -34.352432 -29.922412 16.366515 -1.341838 8.854027 5.144680 -12.645785 
189.535919 0.000000 -285.992105 0.000000 196.567712 0.000000 0.908076 92.285851 -1.022824 96.525740 -0.615585 -179.419290 173.101145 -3.595902 177.307271 -13.738972 -1.854237 2.767068 73.152206 -2.272821 -1.210442 21.454551 0.003094 0.000000 -171.876806 2.295300 175.097596 -17.617551 1.861435 -3.944295 85.469571 2.272789 -1.891096 21.454558 -0.003106 -0.000017 8.647414 0.796519 -0.641988 7.273931 1.631649 -1.232863 6.955771 1.624311 -1.242688 19.369008 8.817391 -5.719580 -11.285770 0.069476 -6.199029 -172.246346 -80.164318 -9.409908 -22.094819 60.476474 36.432365 -33.994892 -16.592775 1.415300 -1.676227 -9.463957 10.378163 176.148680 70.111479 -2.646751 -10.455514 -52.261396 -34.584088 -30.475774 16.500894 -1.361382 8.717227 5.120925 -12.746831 
